<svg width="16" height="16" viewBox="0 0 16 16" fill="none" xmlns="http://www.w3.org/2000/svg">
<path d="M3.51108 8.50308C3.51108 8.50604 3.51108 8.50866 3.51108 8.51127C3.79161 9.00599 3.93844 9.56525 3.93711 10.134V10.762C5.13488 10.2936 6.53581 10.0465 8.00001 10.0465C9.94122 10.0465 11.3667 10.4696 12.1172 10.7602L12.1224 10.1336C12.1224 9.45673 12.2821 8.85135 12.5615 8.36054L13.1941 4.19309C13.3574 3.12408 13.075 2.10157 12.3978 1.31348C11.6796 0.479267 10.592 0 9.41396 0H6.64632C5.46603 0 4.37654 0.479267 3.66101 1.31459C2.98458 2.10307 2.70177 3.12558 2.86513 4.19386L3.51108 8.50308Z" fill="white"/>
<path d="M14.7185 7.81393C13.5029 7.81393 12.867 8.98118 12.867 10.1336V10.8242C12.867 11.0813 12.7465 11.3224 12.5515 11.4522C12.3831 11.5655 12.1688 11.5861 11.9818 11.5069C11.3306 11.2394 9.94869 10.7907 8.00044 10.7907C6.57422 10.7907 5.21794 11.0385 4.07822 11.5069C3.89124 11.5864 3.67678 11.566 3.50818 11.4526C3.31357 11.3224 3.19266 11.0805 3.19266 10.8245V10.1336C3.19266 8.83125 2.29964 7.81393 1.15807 7.81393C0.529605 7.81393 0.186523 8.55811 0.186523 8.93764C0.186523 9.39905 0.510628 9.917 0.909139 10.0911C0.949709 10.109 0.99436 10.1284 1.04198 10.1455C1.40365 10.2898 2.07638 10.5581 2.07638 11.3291V12.8249C2.07638 13.383 2.19656 14.611 3.20086 14.842C3.19734 14.8555 3.19458 14.8692 3.19266 14.8829V15.6271C3.19266 15.8326 3.35927 15.9992 3.56477 15.9992H3.93687C4.14237 15.9992 4.30897 15.8326 4.30897 15.6271V14.8837H11.7508V15.6279C11.7508 15.8334 11.9174 16 12.1229 16H12.495C12.7005 16 12.8671 15.8334 12.8671 15.6279V14.8837C12.8671 14.8733 12.8619 14.8643 12.8612 14.8543C13.7776 14.6794 13.9834 13.6796 13.9834 12.826V11.3302C13.9834 10.5585 14.6532 10.2902 15.0137 10.1458C15.0602 10.1272 15.1042 10.1086 15.1443 10.0919C15.5205 9.92628 15.8141 9.41876 15.8141 8.93838C15.8144 8.55291 15.3515 7.81393 14.7185 7.81393Z" fill="white"/>
</svg>
